# xmcd
#
# Track frame offsets:
# 150
# 13866
# 27506
# 41023
# 57457
# 71040
# 87131
# 101404
# 116578
# 133364
# 145787
# 162774
# 173885
# 189729
# 202239
# 218999
# 231737
# 243654
#
# Disc length: 3469 seconds
#
#
# Revision: 1
# Processed by: cddbd v1.5.2PL0 Copyright (c) Steve Scherf et al.
# Submitted via: FreeRIP 2.90 
#
DISCID=1b0d8b12
DTITLE=Μάριος Τόκας - Τα Τραγούδια Μου
DYEAR=1900
DGENRE=
TTITLE0=Στάζεις Έρωτα - Τόλης Βοσκόπουλος
TTITLE1=Το Σημάδι - Γιάννης Πάριος
TTITLE2=Αν Δεν Γεννηθείς Αστέρι - Κατερίνα Κούκα
TTITLE3=Μια Στάση Εδώ - Δημήτρης Μητροπάνος
TTITLE4=’λλη Στράτα (Νεκρό Χελιδονι) - Μανώλης Μητσιάς
TTITLE5=Δεν Σκοτώνουν Την Αγάπη - Κατερίνα Κούκα
TTITLE6=Λεηλάτησέ με - Γιάννης Πάριος, Χάρις Αλεξίου
TTITLE7=Θυμάμαι Ένα Πατέρα - Στέλιος Διονυσίου
TTITLE8=Θα 'Μαστε Μαζί - Νίκος Νομικός
TTITLE9=Η Νύχτα Μυρίζει Γιασεμί - Θέμης Αδαμαντίσης
TTITLE10=Κι Όλο Εγώ Περίμενα - Διονύσης Θεοδόσης
TTITLE11=Έλα Κρυφά Έλα Λαθραία - Γιάννης Πάριος
TTITLE12=Στρατιωτάκια - Τάνια Τσανακλίδου
TTITLE13=Μέρα - Νύχτα - Μανώλης Μητσιάς
TTITLE14=Φωτιά Στα Κόκκινα - Τόλης Βοσκόπουλος
TTITLE15=Θα Σε Σκεφτώ - Αλέκα Κανελλίδου
TTITLE16=’στο Να Πάει - Γιάννης Πάριος
TTITLE17=Αράζω Στα Ηλεκτρονικά - Στέλιος Διονυσίου
EXTD=
EXTT0=
EXTT1=
EXTT2=
EXTT3=
EXTT4=
EXTT5=
EXTT6=
EXTT7=
EXTT8=
EXTT9=
EXTT10=
EXTT11=
EXTT12=
EXTT13=
EXTT14=
EXTT15=
EXTT16=
EXTT17=
PLAYORDER=
